<svg xmlns="http://www.w3.org/2000/svg" viewBox="0 0 256 256">
  <ellipse cx="128" cy="222" rx="48" ry="12" fill="#2a3f67" opacity=".10"/>
  <circle cx="92" cy="74" r="18" fill="#bf8338"/>
  <circle cx="160" cy="74" r="18" fill="#bf8338"/>
  <circle cx="92" cy="74" r="8" fill="#e8ba7e"/>
  <circle cx="160" cy="74" r="8" fill="#e8ba7e"/>
  <ellipse cx="126" cy="156" rx="56" ry="62" fill="#c78a3a"/>
  <circle cx="126" cy="110" r="48" fill="#c78a3a"/>
  <ellipse cx="126" cy="121" rx="26" ry="22" fill="#f6e5cd"/>
  <circle cx="110" cy="108" r="6" fill="#223864"/>
  <circle cx="142" cy="108" r="6" fill="#223864"/>
  <ellipse cx="126" cy="120" rx="8" ry="7" fill="#2d2d2d"/>
  <path d="M115 132c4 5 7 7 11 7 5 0 9-2 13-7" fill="none" stroke="#97642e" stroke-width="4" stroke-linecap="round"/>
  <ellipse cx="91" cy="154" rx="11" ry="18" fill="#b97d33"/>
  <ellipse cx="161" cy="154" rx="11" ry="18" fill="#b97d33"/>
  <ellipse cx="108" cy="202" rx="16" ry="12" fill="#f0c16b"/>
  <ellipse cx="146" cy="202" rx="16" ry="12" fill="#f0c16b"/>
</svg>