<svg xmlns="http://www.w3.org/2000/svg" viewBox="0 0 256 256">
  <ellipse cx="128" cy="228" rx="50" ry="14" fill="#20355a" opacity=".12"/>
  <circle cx="94" cy="72" r="22" fill="#9c7550" stroke="#20355a" stroke-width="6"/>
  <circle cx="162" cy="72" r="22" fill="#9c7550" stroke="#20355a" stroke-width="6"/>
  <circle cx="94" cy="72" r="9" fill="#d0a57b"/>
  <circle cx="162" cy="72" r="9" fill="#d0a57b"/>
  <ellipse cx="128" cy="154" rx="58" ry="66" fill="#9c7550" stroke="#20355a" stroke-width="6"/>
  <circle cx="128" cy="112" r="50" fill="#9c7550" stroke="#20355a" stroke-width="6"/>
  <ellipse cx="128" cy="127" rx="36" ry="30" fill="#f3e5cd" stroke="#20355a" stroke-width="6"/>
  <circle cx="108" cy="113" r="8" fill="#20355a"/>
  <circle cx="148" cy="113" r="8" fill="#20355a"/>
  <circle cx="93" cy="138" r="7" fill="#f6b8c4" opacity=".75"/>
  <circle cx="163" cy="138" r="7" fill="#f6b8c4" opacity=".75"/>
  <ellipse cx="128" cy="127" rx="11" ry="9" fill="#20355a"/>
  <path d="M116 141c5 6 8 8 12 8 5 0 9-2 13-8" fill="none" stroke="#855734" stroke-width="5" stroke-linecap="round"/>
  <path d="M96 190c8 6 18 9 32 9s24-3 32-9" fill="none" stroke="#855734" stroke-width="6" stroke-linecap="round"/>
</svg>