<svg xmlns="http://www.w3.org/2000/svg" width="1600" height="720" viewBox="0 0 1600 720">
  <rect width="1600" height="720" fill="none"/>
  <g fill="#b8c4d6" opacity="0.82">
    <rect x="80" y="260" width="110" height="230" rx="8"/><rect x="220" y="220" width="140" height="270" rx="8"/><rect x="390" y="300" width="120" height="190" rx="8"/>
    <rect x="560" y="240" width="150" height="250" rx="8"/><rect x="760" y="280" width="100" height="210" rx="8"/><rect x="900" y="210" width="160" height="280" rx="8"/>
    <rect x="1110" y="255" width="120" height="235" rx="8"/><rect x="1270" y="225" width="135" height="265" rx="8"/>
  </g>
  <g fill="#f4f8ff" opacity="0.55">
    <rect x="98" y="282" width="12" height="12"/><rect x="120" y="282" width="12" height="12"/><rect x="142" y="282" width="12" height="12"/>
    <rect x="240" y="242" width="14" height="14"/><rect x="266" y="242" width="14" height="14"/><rect x="292" y="242" width="14" height="14"/>
    <rect x="585" y="262" width="16" height="16"/><rect x="612" y="262" width="16" height="16"/><rect x="639" y="262" width="16" height="16"/>
    <rect x="930" y="230" width="15" height="15"/><rect x="956" y="230" width="15" height="15"/><rect x="982" y="230" width="15" height="15"/>
    <rect x="1295" y="246" width="14" height="14"/><rect x="1321" y="246" width="14" height="14"/><rect x="1347" y="246" width="14" height="14"/>
  </g>
  <g opacity="0.7">
    <rect x="500" y="342" width="188" height="84" rx="14" fill="#dfe9f7"/>
    <path d="M520 366 h80 M520 386 h122 M520 406 h92" stroke="#8fb6dd" stroke-width="7" stroke-linecap="round"/>
    <circle cx="1160" cy="195" r="30" fill="#dfe9f7"/>
    <path d="M1148 195 l8 9 16-18" fill="none" stroke="#7cbf8e" stroke-width="7" stroke-linecap="round" stroke-linejoin="round"/>
  </g>
</svg>
