<svg xmlns="http://www.w3.org/2000/svg" width="1600" height="720" viewBox="0 0 1600 720">
  <rect width="1600" height="720" fill="none"/>
  <path d="M0 470 C170 410 250 390 390 440 S690 520 860 450 1180 370 1360 430 1500 490 1600 462 V720 H0 Z" fill="#a7db94"/>
  <path d="M0 540 C160 490 270 470 450 518 S800 610 990 520 1290 470 1600 560 V720 H0 Z" fill="#79bf72"/>
  <g opacity="0.75">
    <circle cx="235" cy="466" r="42" fill="#6fb26a"/><rect x="226" y="494" width="18" height="46" rx="8" fill="#7c5838"/>
    <circle cx="1194" cy="454" r="38" fill="#6fb26a"/><rect x="1186" y="480" width="16" height="44" rx="8" fill="#7c5838"/>
    <circle cx="1362" cy="514" r="34" fill="#78c27f"/><rect x="1355" y="535" width="14" height="38" rx="7" fill="#7c5838"/>
  </g>
</svg>
