<svg xmlns="http://www.w3.org/2000/svg" width="260" height="250" viewBox="0 0 260 250">
  <defs>
    <filter id="shadow" x="-20%" y="-20%" width="140%" height="140%">
      <feDropShadow dx="0" dy="6" stdDeviation="6" flood-color="#000" flood-opacity="0.3"/>
    </filter>
    <linearGradient id="suit" x1="0" y1="0" x2="0" y2="1">
      <stop offset="0%" stop-color="#44607d"/>
      <stop offset="100%" stop-color="#22364a"/>
    </linearGradient>
  </defs>
  <g filter="url(#shadow)">
    <circle cx="130" cy="72" r="43" fill="#f1c7a3"/>
    <path d="M88 60 q44 -44 84 0 v-15 q-42 -37 -84 0z" fill="#6d597a"/>
    <rect x="66" y="110" width="128" height="112" rx="28" fill="url(#suit)"/>
    <path d="M104 112 h52 l-10 34 h-32z" fill="#fff"/>
    <path d="M121 145 h18 l13 46 h-44z" fill="#e63946"/>
    <rect x="117" y="152" width="8" height="14" rx="4" fill="#ffe082"/>
    <rect x="135" y="152" width="8" height="14" rx="4" fill="#ffe082"/>
    <ellipse cx="114" cy="77" rx="10" ry="12" fill="#fff"/>
    <ellipse cx="146" cy="77" rx="10" ry="12" fill="#fff"/>
    <circle cx="114" cy="78" r="4" fill="#111"/>
    <circle cx="146" cy="78" r="4" fill="#111"/>
    <path d="M108 101 q22 10 44 0" fill="none" stroke="#111" stroke-width="5" stroke-linecap="round"/>
    <path d="M86 132 l-24 34" stroke="#355070" stroke-width="13" stroke-linecap="round"/>
    <path d="M174 132 l24 34" stroke="#355070" stroke-width="13" stroke-linecap="round"/>
    <rect x="82" y="222" width="18" height="23" rx="8" fill="#1f2b38"/>
    <rect x="160" y="222" width="18" height="23" rx="8" fill="#1f2b38"/>
    <rect x="52" y="155" width="26" height="36" rx="6" fill="#ffd166" transform="rotate(-16 52 155)"/>
    <path d="M56 165 h16 M56 174 h12" stroke="#8b5e00" stroke-width="3" stroke-linecap="round"/>
  </g>
</svg>
