<svg xmlns="http://www.w3.org/2000/svg" width="260" height="220" viewBox="0 0 260 220">
  <defs>
    <filter id="shadow" x="-20%" y="-20%" width="140%" height="140%">
      <feDropShadow dx="0" dy="7" stdDeviation="7" flood-color="#000" flood-opacity="0.25"/>
    </filter>
    <linearGradient id="catfur" x1="0" x2="1">
      <stop offset="0%" stop-color="#f6b26b"/>
      <stop offset="100%" stop-color="#cf7d39"/>
    </linearGradient>
  </defs>
  <g filter="url(#shadow)">
    <path d="M34 138 C9 118 8 74 36 58" fill="none" stroke="#9c6644" stroke-width="12" stroke-linecap="round"/>
    <ellipse cx="116" cy="129" rx="76" ry="49" fill="url(#catfur)"/>
    <circle cx="180" cy="84" r="44" fill="url(#catfur)"/>
    <path d="M149 56 L160 22 L182 51" fill="#e39657" stroke="#8c5932" stroke-width="6"/>
    <path d="M179 47 L210 18 L214 64" fill="#e39657" stroke="#8c5932" stroke-width="6"/>
    <path d="M161 58 q22 -12 40 0" fill="none" stroke="#8c5932" stroke-width="5" stroke-linecap="round"/>
    <ellipse cx="188" cy="86" rx="13" ry="15" fill="#fff"/>
    <ellipse cx="169" cy="86" rx="13" ry="15" fill="#fff"/>
    <circle cx="188" cy="87" r="5" fill="#222"/>
    <circle cx="169" cy="87" r="5" fill="#222"/>
    <path d="M170 114 q16 12 34 0" fill="none" stroke="#6b3e26" stroke-width="6" stroke-linecap="round"/>
    <circle cx="198" cy="100" r="8" fill="#ff8fab"/>
    <path d="M202 95 l34 -8" stroke="#6b3e26" stroke-width="4" stroke-linecap="round"/>
    <path d="M203 102 l38 0" stroke="#6b3e26" stroke-width="4" stroke-linecap="round"/>
    <path d="M202 109 l34 8" stroke="#6b3e26" stroke-width="4" stroke-linecap="round"/>
    <path d="M78 172 q10 23 19 0" fill="none" stroke="#9c6644" stroke-width="8" stroke-linecap="round"/>
    <path d="M126 174 q10 23 19 0" fill="none" stroke="#9c6644" stroke-width="8" stroke-linecap="round"/>
    <path d="M53 144 c-19 36 -9 59 14 67" fill="none" stroke="#9c6644" stroke-width="12" stroke-linecap="round"/>
    <ellipse cx="124" cy="120" rx="22" ry="14" fill="#ffd7a3" opacity="0.7"/>
    <path d="M90 91 l49 -10" stroke="#c17c42" stroke-width="8" opacity="0.55" stroke-linecap="round"/>
    <path d="M86 109 l44 -7" stroke="#c17c42" stroke-width="8" opacity="0.45" stroke-linecap="round"/>
  </g>
</svg>
