<svg xmlns="http://www.w3.org/2000/svg" viewBox="0 0 256 256">

<ellipse cx="128" cy="226" rx="48" ry="12" fill="#000" opacity=".08"/>
<ellipse cx="128" cy="158" rx="52" ry="50" fill="#ef9a3d"/>
<circle cx="128" cy="108" r="40" fill="#ef9a3d"/>
<polygon points="98,84 84,52 108,70" fill="#ef9a3d"/><polygon points="158,84 172,52 148,70" fill="#ef9a3d"/>
<polygon points="100,78 92,62 106,70" fill="#f6c4d2"/><polygon points="156,78 164,62 150,70" fill="#f6c4d2"/>
<ellipse cx="128" cy="116" rx="26" ry="22" fill="#fff5ea"/>
<circle cx="116" cy="108" r="5" fill="#2d2a32"/><circle cx="140" cy="108" r="5" fill="#2d2a32"/>
<ellipse cx="128" cy="118" rx="8" ry="6" fill="#f1a4b5"/>
<path d="M118 126 q 10.0 8 20 0" fill="none" stroke="#9b5a3c" stroke-width="4" stroke-linecap="round"/>
<path d="M165 162 q34 14 32 42" fill="none" stroke="#ef9a3d" stroke-width="10" stroke-linecap="round"/>
<path d="M98 120 h-22 M98 128 h-24 M158 120 h22 M158 128 h24" fill="none" stroke="#8e5c3f" stroke-width="4" stroke-linecap="round"/>
<ellipse cx="104" cy="194" rx="16" ry="14" fill="#fff5ea"/><ellipse cx="152" cy="194" rx="16" ry="14" fill="#fff5ea"/>

</svg>
