<svg xmlns="http://www.w3.org/2000/svg" viewBox="0 0 260 260">
  <ellipse cx="126" cy="228" rx="72" ry="22" fill="#5b7a43" opacity=".2"/>
  <ellipse cx="132" cy="154" rx="76" ry="70" fill="#c98239"/>
  <circle cx="135" cy="92" r="54" fill="#c98239"/>
  <path d="M90 56L67 20l40 18z" fill="#c98239"/>
  <path d="M177 53l26-35-4 43z" fill="#c98239"/>
  <path d="M95 55l-15-21 25 11z" fill="#f7c59a"/>
  <path d="M170 52l17-22-2 24z" fill="#f7c59a"/>
  <ellipse cx="126" cy="108" rx="30" ry="22" fill="#fff2e1"/>
  <circle cx="114" cy="92" r="8" fill="#223f73"/>
  <circle cx="145" cy="92" r="8" fill="#223f73"/>
  <circle cx="130" cy="106" r="10" fill="#f3a2b3"/>
  <path d="M131 118c10 10 28 10 38 0" stroke="#7d4d26" stroke-width="5" fill="none" stroke-linecap="round"/>
  <path d="M159 110h40M160 122h46M160 98h35" stroke="#7d4d26" stroke-width="5" stroke-linecap="round"/>
  <ellipse cx="84" cy="145" rx="18" ry="14" fill="#f1b777"/>
  <ellipse cx="175" cy="160" rx="18" ry="14" fill="#f1b777"/>
  <path d="M191 174c26 4 44 19 50 41" stroke="#c98239" stroke-width="12" fill="none" stroke-linecap="round"/>
</svg>
