<svg xmlns="http://www.w3.org/2000/svg" viewBox="0 0 180 180">
  <defs>
    <linearGradient id="cg" x1="0" y1="0" x2="0" y2="1">
      <stop offset="0" stop-color="#f3a55c"/>
      <stop offset="1" stop-color="#d77d35"/>
    </linearGradient>
  </defs>
  <ellipse cx="86" cy="160" rx="44" ry="12" fill="#314565" opacity=".15"/>
  <path d="M130 124c14 5 22 16 25 30" fill="none" stroke="#c86b2b" stroke-width="7" stroke-linecap="round"/>
  <ellipse cx="82" cy="104" rx="46" ry="44" fill="url(#cg)" stroke="#20355a" stroke-width="4"/>
  <path d="M52 60 64 24l20 28Z" fill="#d77d35" stroke="#20355a" stroke-width="4" stroke-linejoin="round"/>
  <path d="M110 52 134 24l8 36Z" fill="#d77d35" stroke="#20355a" stroke-width="4" stroke-linejoin="round"/>
  <path d="M66 45 74 33l8 12Z" fill="#ffd7c0"/>
  <path d="M116 42 126 30l3 13Z" fill="#ffd7c0"/>
  <ellipse cx="90" cy="72" rx="42" ry="32" fill="url(#cg)" stroke="#20355a" stroke-width="4"/>
  <ellipse cx="90" cy="84" rx="26" ry="24" fill="#fff6ea" stroke="#20355a" stroke-width="4"/>
  <circle cx="78" cy="74" r="5" fill="#20355a"/>
  <circle cx="104" cy="74" r="5" fill="#20355a"/>
  <circle cx="90" cy="82" r="8" fill="#f6b8c4"/>
  <path d="M82 94c3 3 7 4 10 4 4 0 8-1 12-4" fill="none" stroke="#20355a" stroke-width="3" stroke-linecap="round"/>
  <path d="M99 83h28M98 89h29M98 77h26" stroke="#20355a" stroke-width="3" stroke-linecap="round"/>
  <path d="M81 83H55M82 89H54M82 77H58" stroke="#20355a" stroke-width="3" stroke-linecap="round"/>
</svg>
