<svg xmlns="http://www.w3.org/2000/svg" viewBox="0 0 160 160">
  <ellipse cx="80" cy="142" rx="33" ry="10" fill="#314565" opacity=".18"/>
  <ellipse cx="80" cy="90" rx="35" ry="41" fill="#d7a96f" stroke="#20355a" stroke-width="4"/>
  <path d="M56 56 46 29c12 0 22 6 28 17Z" fill="#8a623d" stroke="#20355a" stroke-width="4" stroke-linejoin="round"/>
  <path d="M104 56 114 29c-12 0-22 6-28 17Z" fill="#8a623d" stroke="#20355a" stroke-width="4" stroke-linejoin="round"/>
  <ellipse cx="80" cy="79" rx="28" ry="24" fill="#f9e6c6" stroke="#20355a" stroke-width="4"/>
  <circle cx="68" cy="75" r="5" fill="#20355a"/>
  <circle cx="94" cy="75" r="5" fill="#20355a"/>
  <circle cx="81" cy="86" r="8" fill="#20355a"/>
  <path d="M72 95c4 4 8 6 13 6 4 0 9-2 12-6" fill="none" stroke="#8d5c34" stroke-width="3.4" stroke-linecap="round"/>
  <circle cx="58" cy="54" r="5" fill="#8a623d"/>
  <circle cx="102" cy="54" r="5" fill="#8a623d"/>
</svg>
