<svg xmlns="http://www.w3.org/2000/svg" viewBox="0 0 256 256">
  <ellipse cx="128" cy="228" rx="50" ry="14" fill="#20355a" opacity=".12"/>
  <path d="M89 88 66 52c20 0 38 10 46 27Z" fill="#8a6243" stroke="#20355a" stroke-width="6" stroke-linejoin="round"/>
  <path d="M167 88l23-36c-20 0-38 10-46 27Z" fill="#8a6243" stroke="#20355a" stroke-width="6" stroke-linejoin="round"/>
  <ellipse cx="128" cy="154" rx="58" ry="66" fill="#ddb27d" stroke="#20355a" stroke-width="6"/>
  <circle cx="128" cy="112" r="50" fill="#ddb27d" stroke="#20355a" stroke-width="6"/>
  <ellipse cx="128" cy="124" rx="36" ry="30" fill="#fff1d7" stroke="#20355a" stroke-width="6"/>
  <circle cx="108" cy="111" r="8" fill="#20355a"/>
  <circle cx="148" cy="111" r="8" fill="#20355a"/>
  <circle cx="94" cy="138" r="7" fill="#f6b8c4" opacity=".75"/>
  <circle cx="162" cy="138" r="7" fill="#f6b8c4" opacity=".75"/>
  <ellipse cx="128" cy="127" rx="11" ry="9" fill="#20355a"/>
  <path d="M116 139c5 7 10 10 12 10 3 0 6-2 12-10" fill="none" stroke="#9a6137" stroke-width="5" stroke-linecap="round"/>
  <path d="M128 137c0 12 7 16 14 22" fill="none" stroke="#da6f73" stroke-width="5" stroke-linecap="round"/>
  <path d="M96 188c8 6 18 9 32 9s24-3 32-9" fill="none" stroke="#9a6137" stroke-width="6" stroke-linecap="round"/>
</svg>