<svg xmlns="http://www.w3.org/2000/svg" viewBox="0 0 256 256">
  <ellipse cx="128" cy="222" rx="48" ry="12" fill="#2a3f67" opacity=".10"/>
  <ellipse cx="128" cy="156" rx="56" ry="62" fill="#d7a76f"/>
  <circle cx="128" cy="106" r="48" fill="#d7a76f"/>
  <ellipse cx="90" cy="92" rx="16" ry="28" fill="#b9854f" transform="rotate(-18 90 92)"/>
  <ellipse cx="166" cy="92" rx="16" ry="28" fill="#b9854f" transform="rotate(18 166 92)"/>
  <ellipse cx="128" cy="120" rx="28" ry="22" fill="#f6e5cd"/>
  <circle cx="110" cy="106" r="6" fill="#223864"/>
  <circle cx="146" cy="106" r="6" fill="#223864"/>
  <ellipse cx="128" cy="119" rx="9" ry="7" fill="#2d2d2d"/>
  <path d="M116 132c5 6 8 8 12 8 5 0 9-2 12-8" fill="none" stroke="#8f5f37" stroke-width="4" stroke-linecap="round"/>
  <ellipse cx="90" cy="154" rx="11" ry="18" fill="#c9955d"/>
  <ellipse cx="166" cy="154" rx="11" ry="18" fill="#c9955d"/>
  <ellipse cx="108" cy="202" rx="16" ry="12" fill="#f0c16b"/>
  <ellipse cx="148" cy="202" rx="16" ry="12" fill="#f0c16b"/>
  <circle cx="95" cy="127" r="5" fill="#f7c5d2"/>
  <circle cx="161" cy="127" r="5" fill="#f7c5d2"/>
</svg>