<svg xmlns="http://www.w3.org/2000/svg" viewBox="0 0 120 120">
  <ellipse cx="60" cy="102" rx="24" ry="8" fill="#6c8d4a" opacity=".32"/>
  <path d="M15 62c10-11 20-17 31-20-1 7-2 12-2 18-10 2-18 3-29 2Z" fill="#2c4974"/>
  <path d="M105 62c-10-11-20-17-31-20 1 7 2 12 2 18 10 2 18 3 29 2Z" fill="#2c4974"/>
  <path d="M60 24c18 0 34 15 34 34 0 16-10 31-34 31S26 74 26 58c0-19 16-34 34-34Z" fill="#634b37"/>
  <path d="M36 55c0-14 10-25 24-25s24 11 24 25c0 13-9 24-24 24s-24-11-24-24Z" fill="#fff6e8"/>
  <path d="M47 37c4-4 8-6 13-6s9 2 13 6c-4-1-9-2-13-2s-9 1-13 2Z" fill="#29456e"/>
  <path d="M48 46l12-10 12 10-6 4H54z" fill="#efc048"/>
  <path d="M54 57h12l-6 9z" fill="#dc9f18"/>
  <circle cx="51" cy="56" r="3.8" fill="#20355a"/>
  <circle cx="69" cy="56" r="3.8" fill="#20355a"/>
  <path d="M46 69c4 4 9 6 14 6s10-2 14-6" fill="none" stroke="#c78731" stroke-width="3" stroke-linecap="round"/>
  <path d="M31 68c-6 2-10 7-13 13 8-2 15-5 19-9Z" fill="#29456e"/>
  <path d="M89 68c6 2 10 7 13 13-8-2-15-5-19-9Z" fill="#29456e"/>
</svg>