<svg xmlns="http://www.w3.org/2000/svg" viewBox="0 0 256 256">

<ellipse cx="128" cy="226" rx="48" ry="12" fill="#000" opacity=".08"/>
<ellipse cx="128" cy="156" rx="54" ry="52" fill="#7b5a39"/>
<circle cx="128" cy="110" r="38" fill="#7b5a39"/>
<path d="M94 104 q34 -36 68 0 q-8 18 -34 20 q-26 -2 -34 -20z" fill="#fff8ef"/>
<circle cx="116" cy="108" r="5" fill="#2d2a32"/><circle cx="140" cy="108" r="5" fill="#2d2a32"/>
<polygon points="128,116 114,126 142,126" fill="#f3b421"/>
<path d="M86 150 q-22 4 -30 20 q12 10 32 2" fill="#6b4c2f"/><path d="M170 150 q22 4 30 20 q-12 10 -32 2" fill="#6b4c2f"/>
<ellipse cx="104" cy="194" rx="16" ry="13" fill="#f1b84a"/><ellipse cx="152" cy="194" rx="16" ry="13" fill="#f1b84a"/>
<path d="M120 130 q8 5 16 0" fill="none" stroke="#c28b2a" stroke-width="3" stroke-linecap="round"/>

</svg>
