<svg xmlns="http://www.w3.org/2000/svg" viewBox="0 0 256 256">
  <ellipse cx="128" cy="228" rx="50" ry="14" fill="#20355a" opacity=".12"/>
  <path d="M86 116c-20-16-28-36-22-60 20 7 36 21 47 38-9 6-16 13-25 22Z" fill="#8a623d" stroke="#20355a" stroke-width="6" stroke-linejoin="round"/>
  <path d="M170 116c20-16 28-36 22-60-20 7-36 21-47 38 9 6 16 13 25 22Z" fill="#8a623d" stroke="#20355a" stroke-width="6" stroke-linejoin="round"/>
  <ellipse cx="128" cy="160" rx="56" ry="62" fill="#8a623d" stroke="#20355a" stroke-width="6"/>
  <circle cx="128" cy="114" r="50" fill="#fff8ef" stroke="#20355a" stroke-width="6"/>
  <path d="M96 82c10-9 21-13 32-13 12 0 23 4 32 13-11 3-21 4-32 4s-21-1-32-4Z" fill="#ffffff"/>
  <path d="M102 96c7-7 15-10 26-10 11 0 19 3 26 10" fill="none" stroke="#76859a" stroke-width="4" stroke-linecap="round"/>
  <circle cx="110" cy="116" r="8" fill="#20355a"/>
  <circle cx="146" cy="116" r="8" fill="#20355a"/>
  <circle cx="94" cy="140" r="7" fill="#f6b8c4" opacity=".65"/>
  <circle cx="162" cy="140" r="7" fill="#f6b8c4" opacity=".65"/>
  <path d="M107 128h42l-21 18z" fill="#efc048" stroke="#20355a" stroke-width="5" stroke-linejoin="round"/>
  <path d="M114 149c4 5 9 7 14 7 6 0 11-2 15-7" fill="none" stroke="#b67a2d" stroke-width="5" stroke-linecap="round"/>
  <path d="M96 188c8 6 18 9 32 9s24-3 32-9" fill="none" stroke="#6d4d35" stroke-width="6" stroke-linecap="round" opacity=".8"/>
</svg>