<svg xmlns="http://www.w3.org/2000/svg" viewBox="0 0 160 160">
  <ellipse cx="80" cy="144" rx="32" ry="10" fill="#314565" opacity=".18"/>
  <path d="M46 82c9-16 20-27 34-33-4 12-4 20-2 31-11 2-20 3-32 2Z" fill="#2b4874" stroke="#20355a" stroke-width="4" stroke-linejoin="round"/>
  <path d="M114 82c-9-16-20-27-34-33 4 12 4 20 2 31 11 2 20 3 32 2Z" fill="#2b4874" stroke="#20355a" stroke-width="4" stroke-linejoin="round"/>
  <ellipse cx="80" cy="86" rx="30" ry="40" fill="#7b5a3b" stroke="#20355a" stroke-width="4"/>
  <path d="M57 80c0-16 10-28 23-28s23 12 23 28-10 26-23 26S57 96 57 80Z" fill="#fff8ec" stroke="#20355a" stroke-width="4"/>
  <path d="M61 57c5-4 12-7 19-7 8 0 15 3 20 7-7 0-13 2-20 2-6 0-12-2-19-2Z" fill="#2b4874"/>
  <path d="M66 76h28l-14 12z" fill="#efc048" stroke="#20355a" stroke-width="3.5" stroke-linejoin="round"/>
  <circle cx="70" cy="73" r="4.6" fill="#20355a"/>
  <circle cx="90" cy="73" r="4.6" fill="#20355a"/>
  <path d="M66 92c4 4 8 6 14 6 5 0 10-2 14-6" fill="none" stroke="#ba7a2d" stroke-width="3.2" stroke-linecap="round"/>
</svg>
