<svg xmlns="http://www.w3.org/2000/svg" viewBox="0 0 256 256">
  <ellipse cx="128" cy="222" rx="48" ry="12" fill="#2a3f67" opacity=".10"/>
  <ellipse cx="126" cy="156" rx="56" ry="60" fill="#8b623c"/>
  <circle cx="126" cy="108" r="46" fill="#fff8ef"/>
  <path d="M95 86c9-12 20-18 31-18 12 0 22 6 31 18-20 6-42 6-62 0Z" fill="#efc149"/>
  <path d="M80 128c-8-9-11-22-8-36 15 7 26 18 33 30-7 0-16 2-25 6Z" fill="#8b623c"/>
  <path d="M172 128c8-9 11-22 8-36-15 7-26 18-33 30 7 0 16 2 25 6Z" fill="#8b623c"/>
  <circle cx="110" cy="108" r="6" fill="#223864"/>
  <circle cx="142" cy="108" r="6" fill="#223864"/>
  <path d="M112 121h28l-14 13Z" fill="#efc149"/>
  <path d="M115 132c3 5 7 7 11 7 5 0 9-2 12-7" fill="none" stroke="#9b6a33" stroke-width="4" stroke-linecap="round"/>
  <ellipse cx="90" cy="128" rx="5" ry="4" fill="#f7c5d2"/>
  <ellipse cx="162" cy="128" rx="5" ry="4" fill="#f7c5d2"/>
  <ellipse cx="108" cy="202" rx="16" ry="12" fill="#d7a54c"/>
  <ellipse cx="146" cy="202" rx="16" ry="12" fill="#d7a54c"/>
</svg>