<svg xmlns="http://www.w3.org/2000/svg" viewBox="0 0 160 160">
  <ellipse cx="80" cy="136" rx="42" ry="12" fill="#5b7a43" opacity=".22"/>
  <path d="M36 98c0-27 20-49 44-49s44 22 44 49c0 13-4 23-11 32H47c-7-9-11-19-11-32z" fill="#6d553f"/>
  <path d="M80 36c16 0 30 10 36 24-8 6-22 12-36 12s-28-6-36-12c6-14 20-24 36-24z" fill="#fff8f0"/>
  <path d="M80 36c10 0 18 5 24 12-8 5-15 7-24 7s-16-2-24-7c6-7 14-12 24-12z" fill="#f2c84a"/>
  <circle cx="69" cy="58" r="5" fill="#223f73"/><circle cx="91" cy="58" r="5" fill="#223f73"/>
  <path d="M80 68l-12 8h24z" fill="#f2c84a"/>
</svg>
