<svg xmlns="http://www.w3.org/2000/svg" viewBox="0 0 160 160">
  <ellipse cx="80" cy="144" rx="34" ry="10" fill="#314565" opacity=".18"/>
  <ellipse cx="78" cy="94" rx="34" ry="37" fill="#f28e33" stroke="#20355a" stroke-width="4"/>
  <path d="M54 58 64 24l18 28Z" fill="#f28e33" stroke="#20355a" stroke-width="4" stroke-linejoin="round"/>
  <path d="M108 58 96 24 78 52Z" fill="#f28e33" stroke="#20355a" stroke-width="4" stroke-linejoin="round" transform="translate(26,0) scale(-1,1)"/>
  <path d="M64 43 72 31l8 12Z" fill="#fff1df"/>
  <path d="M97 43 105 31l8 12Z" fill="#fff1df"/>
  <ellipse cx="80" cy="76" rx="31" ry="26" fill="#f28e33" stroke="#20355a" stroke-width="4"/>
  <path d="M80 64c10 0 17 6 17 16 0 13-7 21-17 21S63 93 63 80c0-10 7-16 17-16Z" fill="#fff8ef" stroke="#20355a" stroke-width="4"/>
  <circle cx="69" cy="73" r="5" fill="#20355a"/>
  <circle cx="91" cy="73" r="5" fill="#20355a"/>
  <circle cx="80" cy="82" r="7" fill="#20355a"/>
  <path d="M71 91c3 4 6 5 9 5 4 0 8-1 11-5" fill="none" stroke="#d47b2d" stroke-width="3.2" stroke-linecap="round"/>
  <path d="M100 110c15 3 27 11 34 22" fill="none" stroke="#f28e33" stroke-width="7" stroke-linecap="round"/>
  <path d="M104 114c11 2 19 6 26 12" fill="none" stroke="#fff8ef" stroke-width="4" stroke-linecap="round"/>
</svg>
