<svg xmlns="http://www.w3.org/2000/svg" viewBox="0 0 256 256">
  <ellipse cx="128" cy="222" rx="48" ry="12" fill="#2a3f67" opacity=".10"/>
  <ellipse cx="126" cy="156" rx="54" ry="60" fill="#f18d3a"/>
  <circle cx="126" cy="106" r="48" fill="#f18d3a"/>
  <path d="M93 82 108 46l23 30Z" fill="#f18d3a"/>
  <path d="M159 82l-15-36-23 30Z" fill="#f18d3a"/>
  <path d="M108 66 115 56l8 10Z" fill="#fff"/>
  <path d="M144 66l-7-10-8 10Z" fill="#fff"/>
  <path d="M126 100c16 0 29 10 29 24 0 18-12 31-29 31-16 0-29-13-29-31 0-14 13-24 29-24Z" fill="#fff8f0"/>
  <circle cx="110" cy="108" r="6" fill="#223864"/>
  <circle cx="142" cy="108" r="6" fill="#223864"/>
  <ellipse cx="126" cy="120" rx="8" ry="6" fill="#2d2d2d"/>
  <path d="M114 132c4 5 8 7 12 7s8-2 12-7" fill="none" stroke="#d2702c" stroke-width="4" stroke-linecap="round"/>
  <path d="M168 165c20 2 36 15 44 34" fill="none" stroke="#f18d3a" stroke-width="14" stroke-linecap="round"/>
  <path d="M172 167c15 3 24 8 32 16" fill="none" stroke="#fff8f0" stroke-width="6" stroke-linecap="round"/>
  <ellipse cx="95" cy="127" rx="5" ry="4" fill="#f7c5d2"/>
  <ellipse cx="157" cy="127" rx="5" ry="4" fill="#f7c5d2"/>
</svg>