<svg xmlns="http://www.w3.org/2000/svg" viewBox="0 0 256 256">
  <ellipse cx="126" cy="228" rx="50" ry="14" fill="#20355a" opacity=".12"/>
  <path d="M94 85 106 42l22 34Z" fill="#f28e33" stroke="#20355a" stroke-width="6" stroke-linejoin="round"/>
  <path d="M162 85 150 42l-22 34Z" fill="#f28e33" stroke="#20355a" stroke-width="6" stroke-linejoin="round"/>
  <path d="M108 64 116 52l10 12Z" fill="#fff5ea"/>
  <path d="M148 64 140 52l-10 12Z" fill="#fff5ea"/>
  <ellipse cx="126" cy="156" rx="56" ry="66" fill="#f28e33" stroke="#20355a" stroke-width="6"/>
  <circle cx="126" cy="112" r="49" fill="#f28e33" stroke="#20355a" stroke-width="6"/>
  <path d="M126 96c16 0 29 10 29 27 0 21-11 34-29 34s-29-13-29-34c0-17 13-27 29-27Z" fill="#fffaf2" stroke="#20355a" stroke-width="6"/>
  <circle cx="108" cy="114" r="8" fill="#20355a"/>
  <circle cx="144" cy="114" r="8" fill="#20355a"/>
  <circle cx="92" cy="141" r="7" fill="#f6b8c4" opacity=".75"/>
  <circle cx="160" cy="141" r="7" fill="#f6b8c4" opacity=".75"/>
  <ellipse cx="126" cy="129" rx="10" ry="8" fill="#20355a"/>
  <path d="M114 141c5 6 8 8 12 8 5 0 9-2 13-8" fill="none" stroke="#d37528" stroke-width="5" stroke-linecap="round"/>
  <path d="M168 156c28 5 47 22 53 42" fill="none" stroke="#f28e33" stroke-width="12" stroke-linecap="round"/>
  <path d="M171 162c20 5 30 11 39 20" fill="none" stroke="#fffaf2" stroke-width="6" stroke-linecap="round"/>
</svg>