<svg xmlns="http://www.w3.org/2000/svg" viewBox="0 0 280 360">

<ellipse cx="140" cy="334" rx="74" ry="16" fill="#000" opacity=".08"/>
<rect x="68" y="176" width="144" height="120" rx="30" fill="#6d8fbe"/>
<rect x="112" y="176" width="56" height="122" rx="18" fill="#f7f8fb"/>
<polygon points="140,184 154,206 126,206" fill="#3f628b"/>
<rect x="94" y="222" width="16" height="56" rx="8" fill="#f0c39b"/><rect x="170" y="222" width="16" height="56" rx="8" fill="#f0c39b"/>
<circle cx="140" cy="118" r="48" fill="#f0c39b"/>
<path d="M93 114 q10 -42 48 -46 q40 2 52 34 q4 10 0 24 q-24 -8 -45 -8 q-32 0 -55 10z" fill="#6b4b32"/>
<path d="M102 91 q16 -26 44 -26" fill="none" stroke="#7c5940" stroke-width="10" stroke-linecap="round"/>
<circle cx="124" cy="124" r="5" fill="#2f2a2a"/><circle cx="156" cy="124" r="5" fill="#2f2a2a"/>
<path d="M129 146 q11 10 22 0" fill="none" stroke="#8f5d49" stroke-width="4" stroke-linecap="round"/>
<rect x="186" y="202" width="40" height="74" rx="8" fill="#f4d061"/><rect x="192" y="208" width="28" height="62" rx="4" fill="#ffe38c"/>
<rect x="84" y="282" width="24" height="46" rx="10" fill="#3f628b"/><rect x="172" y="282" width="24" height="46" rx="10" fill="#3f628b"/>
<rect x="80" y="320" width="32" height="10" rx="5" fill="#4b3b31"/><rect x="168" y="320" width="32" height="10" rx="5" fill="#4b3b31"/>

</svg>
