<svg xmlns="http://www.w3.org/2000/svg" viewBox="0 0 220 300">
  <defs>
    <linearGradient id="jg" x1="0" y1="0" x2="0" y2="1">
      <stop offset="0" stop-color="#6f8db2"/>
      <stop offset="1" stop-color="#5d789d"/>
    </linearGradient>
  </defs>
  <ellipse cx="110" cy="282" rx="54" ry="16" fill="#314565" opacity=".16"/>
  <path d="M72 128h76v103c0 18-14 32-32 32h-12c-18 0-32-14-32-32Z" fill="url(#jg)" stroke="#20355a" stroke-width="5"/>
  <path d="M101 128h18v130h-18z" fill="#f3f7fc"/>
  <path d="M110 147l10 22h-20z" fill="#cf5f5f"/>
  <path d="M84 102c-13 10-22 24-27 42" fill="none" stroke="#6f8db2" stroke-width="18" stroke-linecap="round"/>
  <path d="M136 102c13 10 22 24 27 42" fill="none" stroke="#6f8db2" stroke-width="18" stroke-linecap="round"/>
  <circle cx="53" cy="148" r="11" fill="#f0d2b4" stroke="#20355a" stroke-width="4"/>
  <circle cx="167" cy="148" r="11" fill="#f0d2b4" stroke="#20355a" stroke-width="4"/>
  <path d="M80 87c0-28 16-52 38-52h8c22 0 38 24 38 52v18H80z" fill="#7f5a3e" stroke="#20355a" stroke-width="5"/>
  <path d="M86 73c13-10 30-15 49-15 11 0 22 2 31 8-8-18-23-31-40-31h-8c-18 0-32 13-38 33 3 2 5 3 6 5Z" fill="#6d4d35"/>
  <circle cx="122" cy="95" r="40" fill="#f0d2b4" stroke="#20355a" stroke-width="5"/>
  <rect x="92" y="89" width="22" height="16" rx="4" fill="none" stroke="#20355a" stroke-width="4"/>
  <rect x="130" y="89" width="22" height="16" rx="4" fill="none" stroke="#20355a" stroke-width="4"/>
  <path d="M114 97h16" stroke="#20355a" stroke-width="4" stroke-linecap="round"/>
  <circle cx="102" cy="97" r="4.6" fill="#20355a"/>
  <circle cx="140" cy="97" r="4.6" fill="#20355a"/>
  <path d="M111 115c4 5 9 7 15 7 6 0 12-2 16-7" fill="none" stroke="#20355a" stroke-width="4" stroke-linecap="round"/>
  <rect x="150" y="134" width="28" height="70" rx="6" fill="#f3cd5a" stroke="#476487" stroke-width="4"/>
  <rect x="153" y="140" width="22" height="60" rx="4" fill="#ffe994"/>
  <path d="M94 196c7 7 12 10 21 10s15-3 23-10" fill="none" stroke="#4c6587" stroke-width="4" stroke-linecap="round"/>
  <path d="M88 244c10 8 22 12 34 12s25-4 36-12" fill="none" stroke="#496689" stroke-width="5" stroke-linecap="round"/>
</svg>
