<svg xmlns="http://www.w3.org/2000/svg" viewBox="0 0 180 220">
  <ellipse cx="90" cy="198" rx="42" ry="13" fill="rgba(32,53,90,.16)"/>
  <path d="M57 89h66v80a18 18 0 0 1-18 18H75a18 18 0 0 1-18-18Z" fill="#6e8fb6"/>
  <path d="M82 89h16v98H82z" fill="#eef4fb"/>
  <path d="M90 102l10 20H80z" fill="#cc5f5f"/>
  <path d="M64 67c0-21 12-39 26-39h7c14 0 26 18 26 39v13H64Z" fill="#7e5c3f"/>
  <path d="M72 53c12-7 27-8 42-4 5 2 10 4 14 7-4-15-15-28-31-28h-7c-12 0-23 11-28 25 3 1 6 1 10 0Z" fill="#6d4f36"/>
  <circle cx="90" cy="69" r="28" fill="#f0d2b4"/>
  <rect x="68" y="65" width="20" height="14" rx="4" fill="none" stroke="#20355a" stroke-width="3"/>
  <rect x="92" y="65" width="20" height="14" rx="4" fill="none" stroke="#20355a" stroke-width="3"/>
  <path d="M88 72h4" stroke="#20355a" stroke-width="3" stroke-linecap="round"/>
  <circle cx="78" cy="72" r="3.4" fill="#20355a"/>
  <circle cx="102" cy="72" r="3.4" fill="#20355a"/>
  <path d="M83 85c4 4 10 4 14 0" fill="none" stroke="#20355a" stroke-width="3" stroke-linecap="round"/>
  <path d="M70 90c-11 10-18 21-22 35" fill="none" stroke="#6e8fb6" stroke-width="16" stroke-linecap="round"/>
  <path d="M110 90c11 10 18 21 22 35" fill="none" stroke="#6e8fb6" stroke-width="16" stroke-linecap="round"/>
  <circle cx="46" cy="127" r="10" fill="#f0d2b4"/>
  <circle cx="134" cy="127" r="10" fill="#f0d2b4"/>
  <rect x="126" y="118" width="30" height="56" rx="5" fill="#f4ce59" stroke="#476487" stroke-width="4"/>
  <rect x="74" y="109" width="32" height="8" rx="4" fill="#5b769a" opacity=".25"/>
</svg>