<svg xmlns="http://www.w3.org/2000/svg" viewBox="0 0 180 220">
  <ellipse cx="90" cy="204" rx="46" ry="12" fill="rgba(36,57,95,0.16)"/>
  <g stroke="#23395f" stroke-width="4" stroke-linecap="round" stroke-linejoin="round">
    <rect x="58" y="92" width="64" height="82" rx="16" fill="#597ba3"/>
    <path d="M78 92h24v82H78z" fill="#edf3fb"/>
    <path d="M90 115l-10 16h20z" fill="#d34646"/>
    <path d="M66 178v20M114 178v20" fill="none"/>
    <path d="M66 198h18M96 198h18" fill="none"/>
    <circle cx="90" cy="58" r="31" fill="#f0d2b4"/>
    <path d="M58 54c4-24 21-38 40-38 24 0 41 16 42 41-10-5-20-7-31-7-18 0-31 5-51 4z" fill="#7b5a3d"/>
    <path d="M69 61c4-3 7-4 11-4M100 57c4 0 7 1 11 4" fill="none"/>
    <circle cx="78" cy="63" r="4.5" fill="#23395f"/>
    <circle cx="102" cy="63" r="4.5" fill="#23395f"/>
    <path d="M81 79c6 4 12 4 18 0" fill="none"/>
    <rect x="39" y="106" width="18" height="13" rx="6" fill="#f0d2b4"/>
    <rect x="123" y="106" width="18" height="13" rx="6" fill="#f0d2b4"/>
    <path d="M52 112l-16 18" fill="none"/>
    <path d="M128 112l15 14" fill="none"/>
    <rect x="130" y="102" width="28" height="54" rx="4" fill="#f6d263"/>
    <path d="M136 114h16M136 126h16M136 138h12" fill="none"/>
    <path d="M74 44c7-4 14-5 22-5" fill="none"/>
  </g>
</svg>
