<svg xmlns="http://www.w3.org/2000/svg" viewBox="0 0 140 160"><ellipse cx="70" cy="140" rx="40" ry="12" fill="rgba(36,57,95,0.15)"/><rect x="42" y="67" width="56" height="62" rx="12" fill="#6e8fb6"/><rect x="58" y="67" width="24" height="62" fill="#e9f1fb"/><circle cx="70" cy="43" r="27" fill="#f0d2b4"/><path d="M45 38c4-18 18-29 34-29 20 0 33 13 34 31-8-3-17-5-24-5-16 0-30 4-44 3z" fill="#7b5a3d"/><path d="M56 42c0-3 2-5 5-5h18c3 0 5 2 5 5v7H56z" fill="#a57749"/><circle cx="60" cy="43" r="3.5" fill="#23395f"/><circle cx="80" cy="43" r="3.5" fill="#23395f"/><path d="M63 55c4 3 10 3 14 0" fill="none" stroke="#23395f" stroke-width="2.5" stroke-linecap="round"/><rect x="31" y="77" width="18" height="12" rx="6" fill="#f0d2b4"/><rect x="91" y="77" width="18" height="12" rx="6" fill="#f0d2b4"/><rect x="101" y="74" width="21" height="42" rx="3" fill="#f6d263" stroke="#476487" stroke-width="3"/></svg>