<svg xmlns="http://www.w3.org/2000/svg" viewBox="0 0 260 360">
  <ellipse cx="130" cy="338" rx="82" ry="18" fill="#6e5838" opacity=".2"/>
  <rect x="82" y="88" width="96" height="128" rx="26" fill="#e9f0fa" stroke="#223f73" stroke-width="6"/>
  <rect x="90" y="142" width="80" height="80" rx="18" fill="#fffdf7"/>
  <path d="M96 208l-22 106h38l20-86z" fill="#385f92"/>
  <path d="M164 208l22 106h-38l-20-86z" fill="#385f92"/>
  <path d="M90 120l-34 72 28 15 32-62z" fill="#e9f0fa" stroke="#223f73" stroke-width="5"/>
  <path d="M170 120l34 72-28 15-32-62z" fill="#e9f0fa" stroke="#223f73" stroke-width="5"/>
  <circle cx="130" cy="56" r="42" fill="#f2d2bd" stroke="#223f73" stroke-width="6"/>
  <path d="M86 52c6-28 90-32 92 4-10-10-23-16-46-16-17 0-33 5-46 12z" fill="#7c5c38"/>
  <circle cx="115" cy="58" r="6" fill="#223f73"/><circle cx="146" cy="58" r="6" fill="#223f73"/>
  <path d="M124 74c5 4 9 4 14 0" stroke="#b46a63" stroke-width="4" fill="none" stroke-linecap="round"/>
  <rect x="30" y="176" width="54" height="76" rx="8" fill="#fff8e7" stroke="#223f73" stroke-width="5" transform="rotate(-8 30 176)"/>
  <line x1="44" y1="200" x2="70" y2="196" stroke="#8fb6e8" stroke-width="5"/>
  <line x1="44" y1="215" x2="70" y2="211" stroke="#d4c38d" stroke-width="4"/>
  <line x1="44" y1="228" x2="70" y2="224" stroke="#d4c38d" stroke-width="4"/>
  <circle cx="68" cy="243" r="8" fill="#d34b55"/>
</svg>
