<svg xmlns="http://www.w3.org/2000/svg" width="220" height="170" viewBox="0 0 220 170">
  <defs>
    <filter id="shadow" x="-20%" y="-20%" width="140%" height="140%">
      <feDropShadow dx="0" dy="6" stdDeviation="6" flood-color="#000" flood-opacity="0.25"/>
    </filter>
    <linearGradient id="fur" x1="0" x2="1">
      <stop offset="0%" stop-color="#aab6bf"/>
      <stop offset="100%" stop-color="#7f8c97"/>
    </linearGradient>
  </defs>
  <g filter="url(#shadow)">
    <path d="M24 106 C4 98 6 64 28 52 C38 47 48 47 57 50" fill="none" stroke="#7d8b96" stroke-width="8" stroke-linecap="round"/>
    <path d="M32 78 C40 58 72 47 108 56 C134 62 150 75 160 92 C165 101 166 121 146 129 C122 139 75 139 52 127 C38 120 28 98 32 78Z" fill="url(#fur)"/>
    <ellipse cx="151" cy="77" rx="35" ry="30" fill="#d6dde2"/>
    <ellipse cx="124" cy="46" rx="18" ry="24" fill="#f2bcc7" stroke="#97a4ae" stroke-width="5"/>
    <ellipse cx="150" cy="34" rx="20" ry="26" fill="#f2bcc7" stroke="#97a4ae" stroke-width="5"/>
    <ellipse cx="159" cy="83" rx="12" ry="15" fill="#fff"/>
    <ellipse cx="147" cy="81" rx="11" ry="14" fill="#fff"/>
    <circle cx="160" cy="84" r="5" fill="#20262c"/>
    <circle cx="148" cy="82" r="5" fill="#20262c"/>
    <path d="M140 66 q10 -8 24 -5" fill="none" stroke="#55616b" stroke-width="4" stroke-linecap="round"/>
    <circle cx="178" cy="93" r="7" fill="#ff8fab"/>
    <ellipse cx="171" cy="109" rx="15" ry="9" fill="#f7cad0"/>
    <path d="M183 92 l27 -9" stroke="#606b75" stroke-width="4" stroke-linecap="round"/>
    <path d="M183 99 l29 0" stroke="#606b75" stroke-width="4" stroke-linecap="round"/>
    <path d="M183 106 l28 10" stroke="#606b75" stroke-width="4" stroke-linecap="round"/>
    <path d="M68 125 q12 23 24 0" fill="none" stroke="#798792" stroke-width="7" stroke-linecap="round"/>
    <path d="M106 128 q12 23 24 0" fill="none" stroke="#798792" stroke-width="7" stroke-linecap="round"/>
    <path d="M44 100 c-18 29 -15 52 11 61" fill="none" stroke="#7d8b96" stroke-width="9" stroke-linecap="round"/>
    <ellipse cx="108" cy="96" rx="28" ry="18" fill="#c3cdd4" opacity="0.55"/>
    <path d="M120 140 q19 -6 34 4" fill="none" stroke="#fff" stroke-width="5" opacity="0.45" stroke-linecap="round"/>
  </g>
</svg>
