<svg xmlns="http://www.w3.org/2000/svg" viewBox="0 0 160 160">
  <defs>
    <linearGradient id="mg" x1="0" y1="0" x2="0" y2="1">
      <stop offset="0" stop-color="#8d96b1"/>
      <stop offset="1" stop-color="#6c7593"/>
    </linearGradient>
  </defs>
  <ellipse cx="82" cy="142" rx="34" ry="10" fill="#314565" opacity=".18"/>
  <path d="M100 112c14 3 24 12 29 26" fill="none" stroke="#5c6f91" stroke-width="5" stroke-linecap="round"/>
  <ellipse cx="82" cy="88" rx="34" ry="41" fill="url(#mg)" stroke="#20355a" stroke-width="4"/>
  <circle cx="58" cy="48" r="16" fill="#8d96b1" stroke="#20355a" stroke-width="4"/>
  <circle cx="96" cy="44" r="17" fill="#8d96b1" stroke="#20355a" stroke-width="4"/>
  <circle cx="58" cy="48" r="8" fill="#f6b8c4"/>
  <circle cx="96" cy="44" r="8" fill="#f6b8c4"/>
  <ellipse cx="82" cy="78" rx="23" ry="24" fill="#fff6f4" stroke="#20355a" stroke-width="4"/>
  <circle cx="72" cy="72" r="4.6" fill="#20355a"/>
  <circle cx="94" cy="73" r="4.6" fill="#20355a"/>
  <circle cx="84" cy="82" r="7.5" fill="#f6b8c4"/>
  <path d="M78 90c3 3 7 4 12 4 4 0 8-1 11-4" fill="none" stroke="#20355a" stroke-width="3.2" stroke-linecap="round"/>
  <path d="M91 83h25M90 89h24M90 77h22" stroke="#20355a" stroke-width="3" stroke-linecap="round"/>
  <path d="M76 83H54M76 89H52M76 77H54" stroke="#20355a" stroke-width="3" stroke-linecap="round"/>
</svg>
