<svg xmlns="http://www.w3.org/2000/svg" viewBox="0 0 256 256">

<ellipse cx="128" cy="226" rx="48" ry="12" fill="#000" opacity=".08"/>
<ellipse cx="128" cy="146" rx="60" ry="64" fill="#b57a3f"/>
<ellipse cx="128" cy="144" rx="44" ry="50" fill="#e8c48c"/>
<circle cx="102" cy="120" r="24" fill="#fff"/><circle cx="154" cy="120" r="24" fill="#fff"/>
<circle cx="102" cy="120" r="7" fill="#2d2a32"/><circle cx="154" cy="120" r="7" fill="#2d2a32"/>
<polygon points="128,130 118,146 138,146" fill="#f3a423"/>
<path d="M84 96 L70 76 L96 84 Z" fill="#8f5827"/><path d="M172 96 L186 76 L160 84 Z" fill="#8f5827"/>
<path d="M86 168 q-18 10 -18 32 q18 2 28 -16z" fill="#b57a3f"/><path d="M170 168 q18 10 18 32 q-18 2 -28 -16z" fill="#b57a3f"/>
<ellipse cx="104" cy="198" rx="18" ry="14" fill="#f3b542"/><ellipse cx="152" cy="198" rx="18" ry="14" fill="#f3b542"/>

</svg>
