<svg xmlns="http://www.w3.org/2000/svg" viewBox="0 0 256 256">
  <ellipse cx="128" cy="226" rx="52" ry="14" fill="#20355a" opacity=".12"/>
  <path d="M85 83c-6-29 12-52 38-57-7 22-3 39 11 54z" fill="#8c6542" stroke="#20355a" stroke-width="6" stroke-linejoin="round"/>
  <path d="M171 83c6-29-12-52-38-57 7 22 3 39-11 54z" fill="#8c6542" stroke="#20355a" stroke-width="6" stroke-linejoin="round"/>
  <ellipse cx="128" cy="144" rx="62" ry="74" fill="#936844" stroke="#20355a" stroke-width="6"/>
  <ellipse cx="128" cy="154" rx="46" ry="52" fill="#fff4e5" stroke="#20355a" stroke-width="6"/>
  <circle cx="104" cy="118" r="27" fill="#ffffff" stroke="#20355a" stroke-width="6"/>
  <circle cx="152" cy="118" r="27" fill="#ffffff" stroke="#20355a" stroke-width="6"/>
  <circle cx="106" cy="121" r="9" fill="#20355a"/>
  <circle cx="150" cy="121" r="9" fill="#20355a"/>
  <circle cx="88" cy="147" r="7" fill="#f6b8c4" opacity=".8"/>
  <circle cx="168" cy="147" r="7" fill="#f6b8c4" opacity=".8"/>
  <path d="M128 122l18 18h-36z" fill="#efc048" stroke="#20355a" stroke-width="5" stroke-linejoin="round"/>
  <path d="M92 156c8 8 19 12 36 12 18 0 29-4 36-12" fill="none" stroke="#be7f31" stroke-width="5" stroke-linecap="round"/>
  <path d="M75 130c-10 5-17 15-19 27 12-4 21-5 29-1" fill="#7d5a3a" stroke="#20355a" stroke-width="6" stroke-linecap="round" stroke-linejoin="round"/>
  <path d="M181 130c10 5 17 15 19 27-12-4-21-5-29-1" fill="#7d5a3a" stroke="#20355a" stroke-width="6" stroke-linecap="round" stroke-linejoin="round"/>
  <path d="M110 190v18M146 190v18" stroke="#be7f31" stroke-width="6" stroke-linecap="round"/>
</svg>