<svg xmlns="http://www.w3.org/2000/svg" viewBox="0 0 256 256">
  <ellipse cx="128" cy="222" rx="48" ry="12" fill="#2a3f67" opacity=".10"/>
  <ellipse cx="105" cy="64" rx="16" ry="42" fill="#fff"/>
  <ellipse cx="147" cy="64" rx="16" ry="42" fill="#fff"/>
  <ellipse cx="105" cy="65" rx="7" ry="28" fill="#f7bfd0"/>
  <ellipse cx="147" cy="65" rx="7" ry="28" fill="#f7bfd0"/>
  <ellipse cx="126" cy="156" rx="54" ry="60" fill="#f7f8ff"/>
  <circle cx="126" cy="112" r="46" fill="#fff"/>
  <ellipse cx="126" cy="122" rx="24" ry="20" fill="#fff"/>
  <circle cx="110" cy="110" r="6" fill="#223864"/>
  <circle cx="142" cy="110" r="6" fill="#223864"/>
  <ellipse cx="126" cy="121" rx="7" ry="6" fill="#f7bfd0"/>
  <path d="M116 132c3 5 6 7 10 7 5 0 8-2 10-7" fill="none" stroke="#66708a" stroke-width="4" stroke-linecap="round"/>
  <ellipse cx="108" cy="202" rx="16" ry="12" fill="#ffe4ee"/>
  <ellipse cx="146" cy="202" rx="16" ry="12" fill="#ffe4ee"/>
  <circle cx="91" cy="128" r="5" fill="#f7c5d2"/>
  <circle cx="161" cy="128" r="5" fill="#f7c5d2"/>
</svg>