<svg xmlns="http://www.w3.org/2000/svg" viewBox="0 0 256 256">
  <ellipse cx="128" cy="226" rx="56" ry="14" fill="#20355a" opacity=".12"/>
  <ellipse cx="120" cy="146" rx="70" ry="54" fill="#8cc15f" stroke="#20355a" stroke-width="6"/>
  <path d="M71 146c0-39 26-68 57-68 32 0 58 29 58 68s-26 68-58 68c-31 0-57-29-57-68Z" fill="#72aa46" stroke="#20355a" stroke-width="6"/>
  <path d="M98 113c8-8 18-12 30-12s22 4 30 12M86 145h84M98 178c9 7 19 10 30 10 12 0 22-3 31-10" fill="none" stroke="#5c8d3b" stroke-width="6" stroke-linecap="round"/>
  <circle cx="193" cy="141" r="26" fill="#8fc56a" stroke="#20355a" stroke-width="6"/>
  <circle cx="202" cy="137" r="8" fill="#20355a"/>
  <circle cx="76" cy="193" r="13" fill="#8fc56a" stroke="#20355a" stroke-width="6"/>
  <circle cx="110" cy="205" r="13" fill="#8fc56a" stroke="#20355a" stroke-width="6"/>
  <circle cx="144" cy="205" r="13" fill="#8fc56a" stroke="#20355a" stroke-width="6"/>
  <circle cx="177" cy="193" r="13" fill="#8fc56a" stroke="#20355a" stroke-width="6"/>
  <path d="M205 151c14 6 22 14 25 25" fill="none" stroke="#5c8d3b" stroke-width="6" stroke-linecap="round"/>
  <circle cx="189" cy="152" r="7" fill="#f6b8c4" opacity=".7"/>
</svg>