<svg xmlns="http://www.w3.org/2000/svg" viewBox="0 0 160 160">
  <ellipse cx="80" cy="142" rx="34" ry="10" fill="#314565" opacity=".18"/>
  <ellipse cx="78" cy="88" rx="40" ry="30" fill="#8dc35e" stroke="#20355a" stroke-width="4"/>
  <path d="M48 88c0-22 15-38 30-38 16 0 31 16 31 38s-15 38-31 38c-15 0-30-16-30-38Z" fill="#7bb14f" stroke="#20355a" stroke-width="4"/>
  <path d="M58 70c6-6 13-8 20-8s14 2 20 8M56 89h44M60 105c5 4 11 6 18 6s14-2 19-6" fill="none" stroke="#5a8b38" stroke-width="4" stroke-linecap="round"/>
  <ellipse cx="121" cy="88" rx="17" ry="14" fill="#8dc35e" stroke="#20355a" stroke-width="4"/>
  <circle cx="126" cy="84" r="4.5" fill="#20355a"/>
  <circle cx="50" cy="117" r="9" fill="#8dc35e" stroke="#20355a" stroke-width="4"/>
  <circle cx="69" cy="123" r="9" fill="#8dc35e" stroke="#20355a" stroke-width="4"/>
  <circle cx="90" cy="123" r="9" fill="#8dc35e" stroke="#20355a" stroke-width="4"/>
  <circle cx="109" cy="117" r="9" fill="#8dc35e" stroke="#20355a" stroke-width="4"/>
  <path d="M133 95c8 3 12 8 15 14" fill="none" stroke="#5a8b38" stroke-width="4" stroke-linecap="round"/>
</svg>
